<svg style="position: absolute; width: 0; height: 0; overflow: hidden;" aria-hidden="true" version="1.1" xmlns="http://www.w3.org/2000/svg" xmlns:xlink="http://www.w3.org/1999/xlink">
    <style>
        .default-palette, .palette0 {color: currentColor;
            --color0: #000;
            --color1: #60c13d;
            --color2: #44c0c6;
            --color3: #1c274c;
            --color4: #fff;
            --color5: #231f20;
            --color6: #d1d3d4;
            --color7: #080341;
            --color8: #2ca9bc;
        }
    </style>
    <defs>
        <symbol id="world" viewBox="0 0 1024 1024" fill="var(--color0, #000)" class="icon" version="1.1">
            <path fill="var(--color2, #44c0c6)" d="M514.5 516.6M30 516.6a484.5 484.5 0 1 0 969 0 484.5 484.5 0 1 0-969 0z" />
            <path d="M514.5 1011c-66.7 0-131.5-13.1-192.5-38.9-58.9-24.9-111.8-60.6-157.2-106s-81.1-98.3-106-157.2c-25.8-61-38.9-125.7-38.9-192.5S33 384.9 58.8 323.9c24.9-58.9 60.6-111.8 106-157.2s98.3-81.1 157.2-106c61-25.8 125.7-38.9 192.5-38.9S646 35.2 707 61c58.9 24.9 111.8 60.6 157.2 106s81.1 98.3 106 157.2c25.8 61 38.9 125.7 38.9 192.5S996 648.2 970.2 709.2c-24.9 58.9-60.6 111.8-106 157.2s-98.3 81.1-157.2 106C646 998 581.3 1011 514.5 1011zM514.5 42.1c-64.1 0-126.2 12.5-184.7 37.3-56.5 23.9-107.2 58.1-150.8 101.7s-77.8 94.3-101.7 150.8C52.6 390.4 40 452.5 40 516.6s12.5 126.2 37.3 184.7c23.9 56.5 58.1 107.2 101.7 150.8s94.3 77.8 150.8 101.7c58.5 24.7 120.6 37.3 184.7 37.3s126.2-12.5 184.7-37.3c56.5-23.9 107.2-58.1 150.8-101.7s77.8-94.3 101.7-150.8c24.7-58.5 37.3-120.6 37.3-184.7s-12.5-126.2-37.3-184.7c-23.9-56.5-58.1-107.2-101.7-150.8s-94.3-77.8-150.8-101.7c-58.5-24.7-120.6-37.3-184.7-37.3z" />
            <path fill="var(--color1, #60c13d)" d="M528 32.8c-59.5 70.5-113.4 163.3 15.1 163.3 207.4 0 153.4 152.8-78.8 163.7-232.3 10.9-166.8 174.7-35.8 191 80.6 10.1 109.4 51.1 119.8 90.1v1.5c0 21.4 2.1 41.8 5.8 60.7v0.4c0 2.4 0.5 4.6 1.4 6.5 14.2 64.5 47.9 77.2 87.3 77.2 52.2 0 87.2-108.9 93.5-168.8 9.7-90.8 101.9-90.2 96.1-204.2-1.7-32.9 84.3-34.1 148.2-29C924.5 185.8 744 38.7 528 32.8z" />
            <path d="M642.7 797.4c-36.4 0-80.2-9.6-96.9-84.1-1.1-2.8-1.7-5.9-1.8-9.1-3.8-20.2-5.8-40.9-5.8-61.7v-0.3c-13-47-49.4-73.7-111-81.4-34.9-4.4-67.4-18.9-91.4-40.9-23.8-21.8-36.8-49-35.8-74.7 0.7-18 8.4-43.8 41.4-64.6 28.4-17.9 69.6-28.2 122.4-30.7 76.5-3.6 124-21.9 150.4-36.7 30.6-17.1 48.6-38.6 48.1-57.4-0.5-22.9-32.1-49.6-119.2-49.6-45.4 0-73.7-11.6-84.3-34.4-8.3-17.9-5-41.9 9.9-71.2 11-21.6 28.4-46.6 51.7-74.2 2-2.3 4.9-3.6 7.9-3.5 54 1.5 106.9 11.6 157.2 30.1 48.7 17.9 94.1 43.4 135 75.7 40.5 32 75.6 69.9 104.4 112.7 29.2 43.5 51.2 91 65.3 141.3 0.9 3.1 0.2 6.5-1.9 9.1-2.1 2.5-5.3 3.9-8.5 3.6-69.5-5.6-121.1-0.8-134.8 12.5-2.5 2.4-2.7 4.4-2.7 6 3.4 67-26 98.2-52 125.7-20.6 21.9-40.1 42.5-44.1 80-3.7 34.9-15.7 78-30.5 110-20.5 44.4-45.7 67.8-73 67.8zM532.5 42.9c-46.2 55.5-65.9 98.2-55.6 120.4 8.8 18.8 40.8 22.8 66.2 22.8 43 0 77.2 6.3 101.6 18.7 23.7 12.1 37.1 30 37.5 50.5 0.6 26.8-20.6 54.3-58.3 75.3-28.3 15.8-78.8 35.4-159.2 39.2-89 4.2-143.1 32.6-144.8 76.1-0.8 19.8 9.9 41.4 29.3 59.2 21 19.3 49.6 32 80.4 35.8 70.2 8.8 113.4 41.6 128.2 97.5 0.2 0.8 0.3 1.7 0.3 2.6v1.5c0 19.8 1.9 39.6 5.6 58.8 0.1 0.6 0.2 1.3 0.2 1.9v0.4c0 0.9 0.2 1.7 0.5 2.4 0.3 0.6 0.5 1.3 0.7 2 12.6 57.5 40.2 69.3 77.6 69.3 25.1 0 45.2-35.2 54.9-56.1 16.9-36.6 26.1-78.8 28.7-103.7 4.7-44.2 27.5-68.3 49.4-91.6 25.5-27 49.6-52.6 46.6-111-0.4-8 2.6-15.4 8.7-21.3 11-10.6 32.2-17 65-19.4 24.1-1.8 50-1 70.8 0.2-13.6-43.2-33.2-84.1-58.6-121.9-27.6-41.1-61.3-77.5-100.2-108.2-39.2-31-82.8-55.4-129.6-72.6-46.7-17.2-95.8-26.9-145.9-28.8z" />
        </symbol>
        <symbol id="medical" viewBox="0 0 24 24" fill="var(--color3, #1c274c)" clip-rule="evenodd" fill-rule="evenodd">
            <path d="M12 11.75c0.4142 0 0.75 0.3358 0.75 0.75v0.75h0.75c0.4142 0 0.75 0.3358 0.75 0.75s-0.3358 0.75-0.75 0.75h-0.75v0.75c0 0.4142-0.3358 0.75-0.75 0.75s-0.75-0.3358-0.75-0.75v-0.75H10.5c-0.4142 0-0.75-0.3358-0.75-0.75s0.3358-0.75 0.75-0.75h0.75V12.5c0-0.4142 0.3358-0.75 0.75-0.75z" />
            <path d="M11.948 1.25c-0.8985 0-1.6477-1e-4-2.2425 0.0799C9.0777 1.4143 8.5109 1.6 8.0555 2.0555 7.6 2.5109 7.4143 3.0777 7.3299 3.7055 7.25 4.3003 7.25 5.0495 7.25 5.948v0.0777C5.2288 6.0919 4.0151 6.328 3.1716 7.1716 2 8.3432 2 10.2288 2 14s0 5.6569 1.1716 6.8284C4.3431 22 6.2288 22 10 22h4c3.7712 0 5.6569 0 6.8284-1.1716C22 19.6569 22 17.7712 22 14s0-5.6569-1.1716-6.8284C19.9849 6.328 18.7712 6.0919 16.75 6.0257V5.948c0-0.8985 1e-4-1.6477-0.0799-2.2425-0.0844-0.6278-0.2701-1.1946-0.7256-1.65-0.4554-0.4555-1.0222-0.6412-1.65-0.7256-0.5948-0.08-1.344-0.0799-2.2425-0.0799zM15.25 6.0019V6c0-0.964-16e-4-1.6116-0.0665-2.0946-0.0621-0.4615-0.1693-0.659-0.2996-0.7893-0.1303-0.1303-0.3278-0.2375-0.7893-0.2996C13.6116 2.7516 12.964 2.75 12 2.75s-1.6116 16e-4-2.0946 0.0665c-0.4615 0.0621-0.659 0.1693-0.7893 0.2996-0.1303 0.1303-0.2375 0.3278-0.2996 0.7893C8.7516 4.3884 8.75 5.036 8.75 6v19e-4C9.142 6 9.5581 6 10 6h4c0.4419 0 0.858 0 1.25 19e-4zM16 14c0 2.2091-1.7909 4-4 4-2.2091 0-4-1.7909-4-4s1.7909-4 4-4c2.2091 0 4 1.7909 4 4z" />
        </symbol>
        <symbol id="study" viewBox="0 -8.14 62.451 62.451">
            <g id="Group_35" stroke-width="4" stroke="var(--color5, #231f20)" stroke-linecap="round" stroke-linejoin="round" fill="var(--color4, #fff)" transform="translate(-782.964 -1356.609)" data-name="Group 35">
                <path id="Path_92" fill="var(--color6, #d1d3d4)" d="M798.022 1369.359v23.226h0.034c0.353 4.555 7.685 8.2 16.7 8.2s16.347-3.641 16.7-8.2h0.033v-23.226z" data-name="Path 92" />
                <path id="Path_93" d="M843.415 1373.207l-29.225 14.6-29.227-14.6 29.227-14.6z" data-name="Path 93" />
                <line id="Line_40" transform="translate(784.964 1374.361)" data-name="Line 40" y1="19.235" />
            </g>
        </symbol>
        <symbol id="travel" viewBox="0 0 24 24" fill="none">
            <path fill="var(--color7, #080341)" clip-rule="evenodd" d="M9.75 6c0-0.8284 0.6716-1.5 1.5-1.5H13c0.6098 0 1.25 0.5861 1.25 1.5h1.5c0-1.5714-1.1506-3-2.75-3h-1.75c-1.6569 0-3 1.3431-3 3h-4.5L3 6.75V19.5l0.75 0.75h16.5L21 19.5V6.75L20.25 6zM4.5 15.75V7.5H6C6 8.3284 5.3284 9 4.5 9v1.5c1.6569 0 3-1.3431 3-3h9c0 1.6569 1.3431 3 3 3v5.25c-1.6569 0-3 1.3431-3 3h-9c0-1.6569-1.3431-3-3-3zM4.5 17.25v1.5H6c0-0.8284-0.6716-1.5-1.5-1.5zM19.5 9C18.6716 9 18 8.3284 18 7.5h1.5zM18 18.75h1.5v-1.5c-0.8284 0-1.5 0.6716-1.5 1.5zM12.3849 12.0978l2.4432-0.6546L14.1735 9 11.7303 9.6547zM11.25 14.25c0 0.8284-0.6716 1.5-1.5 1.5-0.8284 0-1.5-0.6716-1.5-1.5s0.6716-1.5 1.5-1.5c0.8284 0 1.5 0.6716 1.5 1.5zM14.3675 17.3799l2.1271-2.7674-3.4603-0.4584z" fill-rule="evenodd" />
        </symbol>
        <symbol id="game-controller" viewBox="0 0 20 20" version="1.1" xmlns:xlink="http://www.w3.org/1999/xlink">
            <title>game_controller_round [#799]</title>
            <desc>Created with Sketch.</desc>
            <path id="game_controller_round-[#799]" fill="currentColor" transform="translate(-364 -4519)" d="M382 4528c0-0.552-0.448-1-1-1h-14c-0.552 0-1 0.448-1 1v8c0 0.552 0.448 1 1 1h2c0.552 0 1-0.448 1-1s0.448-1 1-1h6c0.552 0 1 0.448 1 1s0.448 1 1 1h2c0.552 0 1-0.448 1-1zM384 4527v10c0 1.105-0.895 2-2 2h-4c-1.105 0-2-0.895-2-2h-4c0 1.105-0.895 2-2 2h-4c-1.105 0-2-0.895-2-2v-10c0-1.105 0.895-2 2-2h7v-2c0-1.105 0.895-2 2-2h2c0.552 0 1-0.448 1-1v-1h2v2c0 1.105-0.895 2-2 2h-2c-0.552 0-1 0.448-1 1v1h7c1.105 0 2 0.895 2 2zM379 4529h-2c-0.552 0-1 0.448-1 1v1 1c0 0.552 0.448 1 1 1h2c0.552 0 1-0.448 1-1v-1-1c0-0.552-0.448-1-1-1zM372 4530v1 1c0 0.552-0.448 1-1 1h-2c-0.552 0-1-0.448-1-1v-1-1c0-0.552 0.448-1 1-1h2c0.552 0 1 0.448 1 1z" fill-rule="evenodd" />
        </symbol>
        <symbol id="game-board" viewBox="0 0 429.987 429.987" fill="currentColor" version="1.1" xmlns:xlink="http://www.w3.org/1999/xlink">
            <path id="XMLID_517_" d="M72.198 338.114c-14.23 0-25.807 11.577-25.807 25.806 0 14.23 11.577 25.807 25.807 25.807 14.229 0 25.806-11.577 25.806-25.807s-11.577-25.806-25.806-25.806zM72.198 371.727c-4.305 0-7.807-3.502-7.807-7.807 0-4.304 3.502-7.806 7.807-7.806 4.304 0 7.806 3.502 7.806 7.806 0 4.305-3.502 7.807-7.806 7.807zM414.857 0H345.53c-4.971 0-9 4.029-9 9v32.936c-16.637 2.276-31.321 10.768-41.626 23.053H112.665c-28.382 0-55.114 11.102-75.274 31.261C17.232 116.412 6.13 143.145 6.13 171.524s11.102 55.113 31.262 75.274c20.159 20.158 46.892 31.26 75.273 31.26l192.396-1e-3c5.737 0 11.174 2.278 15.313 6.418 4.137 4.135 6.415 9.572 6.415 15.312 0 5.737-2.279 11.176-6.417 15.313-4.137 4.136-9.574 6.415-15.311 6.415H122.823c-12.129-14.456-30.324-23.662-50.627-23.662-36.429 0-66.066 29.637-66.066 66.066s29.637 66.067 66.066 66.067c20.306 0 38.5-9.206 50.629-23.665h182.236c28.379 0 55.112-11.101 75.274-31.26 2.439-2.44 8.287-9.108 8.673-9.78 14.646-18.667 22.586-41.492 22.586-65.495 0-28.38-11.102-55.113-31.261-75.274-20.161-20.159-46.894-31.261-75.273-31.261h-13.646c-0.027 0-79.275 0-79.275 0-0.077-1e-3-0.154-1e-3-0.23 0l-99.245 1e-3c-5.736 0-11.175-2.279-15.313-6.417-4.137-4.136-6.415-9.575-6.415-15.313 0-3.488 0.842-6.866 2.432-9.908 0.118-0.198 0.228-0.4 0.329-0.605 0.976-1.731 2.2-3.345 3.653-4.798 4.14-4.139 9.579-6.417 15.314-6.417h182.239c12.129 14.456 30.324 23.664 50.626 23.664 36.429 0 66.065-29.637 66.065-66.066 0-5.772-0.749-11.51-2.226-17.052-1.28-4.803-6.211-7.658-11.014-6.379-4.803 1.28-7.659 6.211-6.379 11.014 1.075 4.031 1.619 8.209 1.619 12.417 0 26.504-21.562 48.066-48.065 48.066-26.504 0-48.067-21.563-48.067-48.066 0-23.429 16.849-42.996 39.067-47.222v47.222c0 4.971 4.029 9 9 9s9-4.029 9-9V65.894h60.327c4.971 0 9-4.029 9-9V9c1e-3-4.971-4.028-9-8.999-9zM72.196 411.987c-26.503 0-48.066-21.563-48.066-48.067 0-26.503 21.563-48.066 48.066-48.066 26.505 0 48.069 21.563 48.069 48.066 0 26.504-21.564 48.067-48.069 48.067zM203.025 388.322h-69.43c3.012-7.552 4.67-15.788 4.67-24.402 0-8.616-1.657-16.851-4.671-24.404h69.431zM282.374 388.322h-61.349v-48.806h61.349zM367.608 362.334c-16.762 16.758-38.974 25.988-62.546 25.988h-4.688v-48.806h4.688c10.545 0 20.502-4.15 28.038-11.686 0.403-0.403 0.796-0.813 1.179-1.229l34.52 34.52c-0.393 0.407-0.79 0.812-1.191 1.213zM393.595 299.788c0 16.893-4.741 33.088-13.596 47.08l-36.616-36.616c0.927-3.373 1.405-6.886 1.405-10.465 0-3.529-0.465-6.992-1.365-10.32l36.647-36.646c8.81 13.963 13.525 30.118 13.525 46.967zM300.374 211.251h4.688c23.572 0 45.785 9.23 62.545 25.989 0.432 0.432 0.859 0.868 1.281 1.307l-34.522 34.521c-0.41-0.448-0.832-0.888-1.264-1.321-7.537-7.539-17.495-11.69-28.04-11.689h-4.688zM221.025 211.251h61.349v48.807h-61.349zM146.967 211.251h56.058v48.807h-56.058zM24.13 171.523c0-17.531 5.104-34.309 14.615-48.652l36.201 36.199c-1.322 3.972-2.009 8.165-2.009 12.455 0 4.611 0.793 9.11 2.317 13.343l-36.027 36.027c-9.821-14.501-15.097-31.546-15.097-49.372zM112.658 211.251c2e-3 0 5e-3 0 7e-3 0h16.302v48.807h-16.302c-23.249 0-45.173-8.976-61.848-25.298l34.509-34.51c7.45 7.103 17.117 11.002 27.332 11.001zM128.967 131.794h-16.302c-10.498 0-20.417 4.115-27.946 11.593l-34.506-34.504c16.749-16.699 38.922-25.895 62.452-25.895h16.302zM203.025 131.794h-56.058V82.989h56.058zM284.133 131.794h-63.108V82.989h63.108c-3.013 7.554-4.67 15.787-4.67 24.403s1.657 16.849 4.67 24.402zM405.857 47.894H354.53V18h51.327z" />
        </symbol>
        <symbol id="vr-glasses" viewBox="0 0 24 24" fill="var(--color0, #000)" class="icon flat-color" data-name="Flat Color">
            <path id="secondary" fill="var(--color8, #2ca9bc)" d="M22 12.5v3a1 1 0 0 1-0.76 1l-2 0.5A1 1 0 0 1 19 17a1 1 0 0 1-1-1v-4a1 1 0 0 1 0.38-0.79 1 1 0 0 1 0.86-0.18l2 0.5A1 1 0 0 1 22 12.5zM4.76 11l-2 0.5a1 1 0 0 0-0.76 1v3a1 1 0 0 0 0.76 1l2 0.5A1 1 0 0 0 5 17a1 1 0 0 0 1-1v-4a1 1 0 0 0-1.24-1zM17.76 10.59A1 1 0 0 1 17 11H7a1 1 0 0 1-0.79-0.38A1 1 0 0 1 6 9.76l0.24-1A5 5 0 0 1 11.12 5h1.76a5 5 0 0 1 4.85 3.79l0.24 1a1 1 0 0 1-0.18 0.83zM15.71 9a3 3 0 0 0-2.83-2h-1.76a3 3 0 0 0-2.83 2z" />
            <path id="primary" d="M18 9H6a2 2 0 0 0-2 2v6a2 2 0 0 0 2 2h1.75a3.5 3.5 0 0 0 2.8-1.4 1.49 1.49 0 0 1 1.2-0.6h0.5a1.49 1.49 0 0 1 1.2 0.6 3.5 3.5 0 0 0 2.8 1.4H18a2 2 0 0 0 2-2v-6a2 2 0 0 0-2-2z" />
        </symbol>
    </defs>
</svg>